# xmcd CD database file
#
# Track frame offsets:
#	150
#	12538
#	22558
#	35233
#	46958
#	56608
#	64918
#	79063
#	88948
#	98595
#	111138
#	120888
#
# Disc length: 1760 seconds
#
# Revision: 0
# Processed by: cddbd v1.5.1PL0 Copyright (c) Steve Scherf et al.
# Submitted via: CDex 1.60beta1
#
DISCID=9006de0c
DTITLE=Reno Brothers - Kentucky Gold
DYEAR=1992
DGENRE=Country
TTITLE0=Kentucky Gold
TTITLE1=Country Boy Rock and Roll
TTITLE2=All That's Worth Remembering
TTITLE3=Rollin' Down the Cumberland
TTITLE4=My Dixieland and Dixie Too
TTITLE5=Hello Jesus
TTITLE6=California Blue Moon
TTITLE7=Reno's 2nd Ride
TTITLE8=Jesus Will Save Your Soul
TTITLE9=The Letter
TTITLE10=Long Gone
TTITLE11=I Ain't Gonna Walk Your Dog
EXTD=YEAR: 1992
EXTT0=
EXTT1=
EXTT2=
EXTT3=
EXTT4=
EXTT5=
EXTT6=
EXTT7=
EXTT8=
EXTT9=
EXTT10=
EXTT11=
PLAYORDER=
